<?xml version="1.0" encoding="utf-8"?>
<!-- Generator: Adobe Illustrator 25.0.0, SVG Export Plug-In . SVG Version: 6.00 Build 0)  -->
<svg version="1.1" id="Layer_1" xmlns="http://www.w3.org/2000/svg" xmlns:xlink="http://www.w3.org/1999/xlink" x="0px" y="0px"
	 viewBox="0 0 467.7 467.7" style="enable-background:new 0 0 467.7 467.7;" xml:space="preserve">
<style type="text/css">
	.st0{fill:none;stroke:#020203;stroke-width:6;stroke-miterlimit:10;}
	.st1{fill:none;stroke:#FFFFFF;stroke-width:6;stroke-miterlimit:10;}
	.st2{fill:none;stroke:#FFFFFF;stroke-width:10;stroke-linecap:round;stroke-linejoin:round;stroke-miterlimit:10;}
	.st3{fill:none;stroke:#FFFFFF;stroke-width:12;stroke-linecap:square;stroke-linejoin:bevel;stroke-miterlimit:10;}
	.st4{opacity:0.4;}
	.st5{fill:#B0B0AF;}
	.st6{fill:#020203;}
	.st7{fill:#020203;stroke:#020203;stroke-miterlimit:10;}
	.st8{fill:#FFFFFF;}
	.st9{fill:none;stroke:#FFFFFF;stroke-width:2;stroke-linecap:round;stroke-linejoin:round;stroke-miterlimit:10;}
	.st10{fill:none;stroke:#FFFFFF;stroke-linecap:round;stroke-linejoin:round;stroke-miterlimit:10;}
	.st11{fill:none;stroke:#020203;stroke-width:2;stroke-linecap:round;stroke-linejoin:round;stroke-miterlimit:10;}
	.st12{opacity:0.8;fill:url(#SVGID_1_);}
	.st13{opacity:0.3;fill:url(#SVGID_2_);}
	.st14{opacity:0.3;fill:url(#SVGID_3_);}
	.st15{fill:none;stroke:#FFFFFF;stroke-width:2;stroke-miterlimit:10;}
	.st16{fill:url(#SVGID_4_);}
	.st17{fill:none;stroke:#878787;stroke-width:2;stroke-miterlimit:10;}
	.st18{fill:#878787;}
	.st19{fill:none;stroke:#B2B2B2;stroke-width:2;stroke-miterlimit:10;}
	.st20{fill:#B2B2B2;}
	.st21{fill:none;stroke:#646363;stroke-width:2;stroke-miterlimit:10;}
	.st22{fill:#646363;}
</style>
<circle class="st0" cx="233.6" cy="233.9" r="165.6"/>
<path class="st1" d="M322.6,212.2c0,0,56.4-35.2,72.8-30.8c0,0,7.6,3,3.4,10.2c-4.2,7.1-19.1,22.2-19.1,22.2L322.6,212.2z"/>
<path class="st2" d="M219.5,276.7c-1,0-2-0.2-2.9-0.7c-4.2-2.1-14.9-7-23.6-7.1c-5.2-0.1-20.9-1.2-37.5-2.5
	c-19.5-1.5-41.5-3.1-48.9-3.1c-12.2,0-22.2-1.2-26.7-3.3c-1-0.6-5.4-3.2-6.2-5.4c-0.6-1.5-4.9-7.5-6.5-9.6l-0.1-0.1l0-0.1
	c-0.5-1.4-12.9-35.3,3.2-47.3c0.1,0,1.5-1,3.8-1c3.8,0,9.9,2.5,17.2,14.4c7.9,13,16,18.8,26.2,18.8c2.2,0,4.6-0.3,7.4-0.8
	c11.9-2.3,78.2-14,78.9-14.1c0.1,0,4.1-0.6,10.5-2.6c3.5-1.1,5.8-1.3,7.7-1.3l1.3,0c0.9,0,1.6,0,2.3-0.3c0.4-0.2,1-0.4,1.6-0.7
	c3-1.3,8.7-3.8,14.7-3.8c0.5,0,0.9,0,1.4,0c8.2,0.6,19.6,2.4,27.1,7.8c1.1,0.8,2.4,1.2,3.8,1.2c0.2,0,0.4,0,0.6,0
	c12.1-1.1,53.5-4.8,79.6-4.8c6.1,0,11.1,0.2,14.6,0.6c16.7,1.9,26.3,7.5,30.6,10.8c0.7,0.6,1.3,1.3,1.6,2.2c0.4,1.5,0,3-1.1,4
	c-3.8,3.5-11.9,9.8-24,12.8l0.4,1.3l-0.1,0.3c-0.3,0.7-8,18.1-50.7,23.2c-16.1,1.9-27.3,2.2-38.1,2.5c-17.2,0.4-33.5,0.9-66.6,8.4
	C220.5,276.6,220,276.7,219.5,276.7z"/>
<path class="st3" d="M69.4,255.1c-0.8,0.2-1.7,0.4-2.5,0.6c-5.3,1.1-14.9,3-19.6,3c0,0,0,0,0,0c-1.8,0-2.7-0.3-3.1-0.9
	c-0.3-0.5-0.4-1.2-0.2-1.8c0.8-2.7,6.7-5.6,8.5-6.4c1.4-0.7,7.6-2.8,14.5-5"/>
<g class="st4">
	<path class="st5" d="M287.9,242.2c-10.3-11.5-23-16.9-28.3-12c-0.6,0.6-1.1,1.2-1.4,2l-120,133.6c2.7,2.1,5.5,4,8.4,5.8l148.9-98.7
		c0.5-0.2,0.9-0.5,1.3-0.9l0.1-0.1l0,0c0,0,0,0,0,0C302.2,267,298.2,253.7,287.9,242.2z"/>
</g>
<g>
	<path class="st6" d="M158.7,179.4l-8.7,12.5l-36.8-25.6l6.7-9.6c2.1-3,4.2-5.1,6.2-6.3c2-1.1,4-1.7,6.1-1.5c2.1,0.1,4,0.8,5.9,2.1
		c3.6,2.5,4.9,6.2,3.9,11c2.4-2.3,5-3.7,7.8-4.1c2.8-0.4,5.4,0.2,7.8,1.9c1.9,1.3,3.2,3,4,5c0.8,2,1,4.2,0.6,6.8
		C161.8,173.9,160.7,176.6,158.7,179.4z M124.7,159.7l-3.2,4.5l11.1,7.7l2.4-3.5c2-2.8,2.8-5.2,2.6-7.1c-0.2-1.9-1.2-3.5-2.9-4.7
		C131.2,154.1,127.9,155.2,124.7,159.7z M140.8,170.2l-3.4,4.9l11.7,8.1l3.6-5.2c2-2.9,3.1-5,3.4-6.3c0.3-1.3,0.1-2.7-0.4-3.9
		c-0.5-1.3-1.3-2.3-2.4-3.1c-1.1-0.8-2.4-1.2-3.8-1.2c-1.4,0-2.7,0.5-4,1.4C144.1,165.9,142.6,167.6,140.8,170.2z"/>
	<path class="st6" d="M154.9,120.4l22-12.7l2.9,4.9l-16.4,9.5l6.9,11.8l15.9-9.2l2.9,5l-15.9,9.2l7,12.1l17-9.8l2.9,4.9l-22.5,13.1
		L154.9,120.4z"/>
	<path class="st6" d="M226.5,96l4.5-0.2l21.7,44.3l-6.6,0.2l-6.5-13.1l-19.1,0.7l-5.1,13.5l-6.6,0.2L226.5,96z M236.9,121.7l-7.8-16
		l-6.1,16.5L236.9,121.7z"/>
	<path class="st6" d="M315.8,121.9l5.2,3l-22.5,38.8l-5.6-3.2l17.5-30.2l-20.6,8.1l-1-0.6l-3.4-22L267.9,146l-5.6-3.2l22.5-38.8
		l5.3,3l3.7,23.4L315.8,121.9z"/>
	<path class="st6" d="M329.5,175.4l-0.1-5.7c0-3.6,0.4-6.4,1.2-8.5c0.8-2.1,2.3-3.7,4.3-5c3-1.9,6.1-2.4,9.2-1.4
		c3.2,0.9,5.8,3,7.9,6.3c2,3.2,2.9,6.6,2.8,10.4l-6.2,3.9c0.9-4.4,0.4-8.2-1.6-11.3c-1.1-1.8-2.4-3-4-3.6c-1.5-0.6-2.9-0.5-4.2,0.3
		c-1.1,0.7-1.9,1.8-2.4,3.3c-0.5,1.5-0.7,3.5-0.6,6l0.1,5.7c0.1,6.4-1.9,10.9-6.2,13.6c-3,1.9-6.2,2.4-9.3,1.6
		c-3.2-0.8-5.8-2.9-7.8-6.2c-2.4-3.8-3.3-7.9-3-12.4l6.9-4.3c-1.9,5.3-1.6,9.8,0.8,13.7c1.1,1.7,2.4,2.8,4.1,3.4
		c1.7,0.5,3.2,0.4,4.6-0.5C328.3,183.1,329.5,180.1,329.5,175.4z"/>
</g>
<path class="st7" d="M322.6,212.2c0,0,56.4-35.2,72.8-30.8c0,0,7.6,3,3.4,10.2c-4.2,7.1-19.1,22.2-19.1,22.2L322.6,212.2z"/>
<ellipse transform="matrix(0.9573 -0.289 0.289 0.9573 -43.6137 112.8677)" class="st8" cx="360.4" cy="204.1" rx="8.9" ry="2.3"/>
<ellipse transform="matrix(0.9573 -0.289 0.289 0.9573 -43.6137 112.8677)" class="st9" cx="360.4" cy="204.1" rx="23.9" ry="6.1"/>
<path class="st9" d="M219.5,276.7c-1,0-2-0.2-2.9-0.7c-4.2-2.1-14.9-7-23.6-7.1c-5.2-0.1-20.9-1.2-37.5-2.5
	c-19.5-1.5-41.5-3.1-48.9-3.1c-12.2,0-22.2-1.2-26.7-3.3c-1-0.6-5.4-3.2-6.2-5.4c-0.6-1.5-4.9-7.5-6.5-9.6l-0.1-0.1l0-0.1
	c-0.5-1.4-12.9-35.3,3.2-47.3c0.1,0,1.5-1,3.8-1c3.8,0,9.9,2.5,17.2,14.4c7.9,13,16,18.8,26.2,18.8c2.2,0,4.6-0.3,7.4-0.8
	c11.9-2.3,78.2-14,78.9-14.1c0.1,0,4.1-0.6,10.5-2.6c3.5-1.1,5.8-1.3,7.7-1.3l1.3,0c0.9,0,1.6,0,2.3-0.3c0.4-0.2,1-0.4,1.6-0.7
	c3-1.3,8.7-3.8,14.7-3.8c0.5,0,0.9,0,1.4,0c8.2,0.6,19.6,2.4,27.1,7.8c1.1,0.8,2.4,1.2,3.8,1.2c0.2,0,0.4,0,0.6,0
	c12.1-1.1,53.5-4.8,79.6-4.8c6.1,0,11.1,0.2,14.6,0.6c16.7,1.9,26.3,7.5,30.6,10.8c0.7,0.6,1.3,1.3,1.6,2.2c0.4,1.5,0,3-1.1,4
	c-3.8,3.5-11.9,9.8-24,12.8l0.4,1.3l-0.1,0.3c-0.3,0.7-8,18.1-50.7,23.2c-16.1,1.9-27.3,2.2-38.1,2.5c-17.2,0.4-33.5,0.9-66.6,8.4
	C220.5,276.6,220,276.7,219.5,276.7z"/>
<path class="st7" d="M80.2,259.2c0,0-5.1-2.9-5.8-4.9c-0.7-1.9-6.6-9.9-6.6-9.9s-12.9-34.6,3-46.3c0,0,8.2-5.9,19.7,13.2
	s22.4,20.8,34.5,18.4c12.1-2.3,78.9-14.1,78.9-14.1s4-0.5,10.6-2.6s8.8-0.6,11.3-1.6c2.5-0.9,9.8-4.9,17.4-4.4
	c6.9,0.5,18.9,2,26.7,7.6c1.5,1,3.2,1.5,5,1.3c14-1.3,73.2-6.6,94.1-4.2c16.6,1.9,26.1,7.5,30.3,10.7c1.5,1.2,1.7,3.5,0.2,4.8
	c-3.8,3.5-12.1,9.9-24.5,12.8l0,0c0.4,1.3,0.2,2.8-0.6,3.9c-3.4,4.7-15,16.6-48.8,20.7c-42.2,5.1-51.2-1.2-104.8,10.9
	c-1.3,0.3-2.6,0.1-3.8-0.5c-4.2-2.1-15.1-7.1-24-7.2c-11.4-0.1-72.8-5.6-86.4-5.6S84.1,260.9,80.2,259.2z"/>
<path class="st10" d="M47.3,258.7c-1.8,0-2.7-0.3-3.1-0.9c-0.3-0.5-0.4-1.2-0.2-1.8c0.8-2.7,6.7-5.6,8.5-6.4
	c3.2-1.5,30.3-10.3,36.7-11.9c2.4-0.6,6.1-0.9,11.2-0.9c3.6,0,6.9,0.2,8.6,0.3c0.6,0,1.1,0.4,1.4,1c0.2,0.6,0.1,1.2-0.4,1.7
	c-4.8,4.6-28,11.8-37.8,14.7c-1.7,0.5-3.5,1-5.3,1.3C61.6,256.8,51.9,258.7,47.3,258.7C47.3,258.7,47.3,258.7,47.3,258.7z"/>
<path class="st7" d="M109.3,239c0.4-0.4,0.2-1.1-0.4-1.2c-3.6-0.2-14.4-0.7-19.5,0.6c-6.2,1.6-33.4,10.4-36.6,11.9
	c-3.1,1.4-9.3,4.8-7.9,7c1.1,1.7,15.6-1.2,21.8-2.5c1.8-0.4,3.5-0.8,5.2-1.3C79.9,251.2,104.5,243.6,109.3,239z"/>
<path class="st7" d="M109.6,227.4c0,0,14.8-8,22.2-4.9c0.8,0.3,1.4,1,1.5,1.8c0.1,1-0.4,2.4-3.4,3.5
	C124.5,229.9,111.7,228.8,109.6,227.4z"/>
<path class="st8" d="M271.1,258.6c4.6-0.9,9.2-1.5,13.8-1.8c4.7-0.3,9.3-0.3,14,0.1c4.7,0.4,9.4,0.9,13.9,2.4
	c4.5,1.6,8.8,3.9,12.2,7c0.1,0.1,0.1,0.2,0,0.2c0,0-0.1,0.1-0.2,0l0,0c-4.3-1.8-8.6-3.3-12.9-4.4c-4.4-1-8.8-2.2-13.3-2.9
	c-4.5-0.6-9.1-0.9-13.7-0.9c-4.6-0.1-9.2,0.1-13.8,0.6l0,0c-0.1,0-0.2-0.1-0.2-0.1C271,258.6,271,258.6,271.1,258.6z"/>
<ellipse class="st8" cx="178.2" cy="242.9" rx="5" ry="6.2"/>
<ellipse class="st9" cx="178.2" cy="242.9" rx="15.8" ry="18"/>
<path class="st8" d="M376.3,241.5c-3.1,0.2-6.4-1.4-8.3-4.1c-2-2.6-2.7-5.9-2.9-9.1c-0.1-3.2,0.1-6.3,0.8-9.3
	c0.3-1.5,0.8-3.1,1.6-4.5c0.4-0.7,0.8-1.4,1.4-1.9c0.5-0.6,1.2-1.1,2-1.2c-0.7,0.4-1.2,1-1.6,1.6c-0.2,0.3-0.4,0.7-0.5,1
	c-0.1,0.3-0.3,0.7-0.4,1c-0.5,1.4-0.8,2.9-1,4.3c-0.2,1.5-0.3,3-0.3,4.5c0,1.5-0.1,3,0,4.5l0,1.1l0.1,1.1c0.1,0.4,0.1,0.7,0.2,1.1
	l0.3,1.1c0.3,1.4,0.9,2.7,1.6,4C370.8,239,373.3,240.8,376.3,241.5z"/>
<path class="st9" d="M312.9,228.9l40.9-3.6c0.8-0.1,1.5,0.5,1.7,1.3l0,0c0.1,0.7-0.2,1.3-0.8,1.6c-1.6,0.8-5.3,2.3-12.7,3
	c-8.1,0.8-19.8,2.4-25.1,3.2c-1.6,0.2-3.2-0.7-3.8-2.2l-0.9-2.2C312,229.5,312.4,229,312.9,228.9z"/>
<line class="st9" x1="320.9" y1="228.2" x2="321.8" y2="233.5"/>
<line class="st9" x1="329.4" y1="227.6" x2="330.1" y2="232.2"/>
<line class="st9" x1="336.4" y1="227" x2="337.3" y2="231.3"/>
<line class="st9" x1="346.6" y1="226" x2="347.2" y2="230.5"/>
<path class="st8" d="M268.1,215.1c-7.1-4.6-17.5-6.2-25-6.7c-0.4,0-0.9,0-1.3,0c-5.5,0-10.7,2.3-13.8,3.6c-0.7,0.3-1.3,0.6-1.7,0.7
	c-1.1,0.4-2.1,0.4-3,0.4l-1.3,0c-1.8,0-3.8,0.1-7,1.2c0,0,0,0,0,0c-1.7,0.5-2.8,2.1-2.9,3.8l-0.2,8.2c0,0,25.6-0.3,33.1-0.8
	l15.5-5.5L268.1,215.1L268.1,215.1z"/>
<path class="st11" d="M225.1,213c0,0-3.7,10.7-1.1,15.1"/>
<line class="st11" x1="248.2" y1="208.9" x2="241.3" y2="229.1"/>
<path class="st11" d="M251.4,209.3c0,0,0.1,4.7,11.1,10.5"/>
<g>
	
		<radialGradient id="SVGID_1_" cx="449.6283" cy="344.2004" r="40.9246" gradientTransform="matrix(0.1418 0.814 -0.8152 0.1131 589.5327 -178.6285)" gradientUnits="userSpaceOnUse">
		<stop  offset="0" style="stop-color:#000000"/>
		<stop  offset="7.367714e-02" style="stop-color:#0A0A0A"/>
		<stop  offset="0.1985" style="stop-color:#242424"/>
		<stop  offset="0.3592" style="stop-color:#505050"/>
		<stop  offset="0.5477" style="stop-color:#8B8B8B"/>
		<stop  offset="0.6397" style="stop-color:#ABABAB"/>
	</radialGradient>
	<path class="st12" d="M398.2,224.1c2,24.2-7.7,44.7-21.8,45.9s-27.1-17.4-29.2-41.6s7.7-44.7,21.8-45.9
		C383.1,181.4,396.2,200,398.2,224.1z"/>
	<linearGradient id="SVGID_2_" gradientUnits="userSpaceOnUse" x1="375.1763" y1="228.7525" x2="397.2079" y2="257.5631">
		<stop  offset="0" style="stop-color:#000000"/>
		<stop  offset="7.367714e-02" style="stop-color:#0A0A0A"/>
		<stop  offset="0.1985" style="stop-color:#242424"/>
		<stop  offset="0.3592" style="stop-color:#505050"/>
		<stop  offset="0.5477" style="stop-color:#8B8B8B"/>
		<stop  offset="0.6397" style="stop-color:#ABABAB"/>
	</linearGradient>
	<path class="st13" d="M372.7,226.3l24.4,17.9c-0.6,3-1.4,5.8-2.4,8.4c-1.3,3.4-2.9,6.4-4.7,8.9L372.7,226.3z"/>
	<linearGradient id="SVGID_3_" gradientUnits="userSpaceOnUse" x1="355.4634" y1="186.2828" x2="381.381" y2="239.9692">
		<stop  offset="0.3603" style="stop-color:#ABABAB"/>
		<stop  offset="0.3725" style="stop-color:#9B9B9B"/>
		<stop  offset="0.4052" style="stop-color:#777777"/>
		<stop  offset="0.442" style="stop-color:#575757"/>
		<stop  offset="0.4827" style="stop-color:#3B3B3B"/>
		<stop  offset="0.5286" style="stop-color:#252525"/>
		<stop  offset="0.5823" style="stop-color:#141414"/>
		<stop  offset="0.6486" style="stop-color:#090909"/>
		<stop  offset="0.7417" style="stop-color:#020202"/>
		<stop  offset="1" style="stop-color:#000000"/>
	</linearGradient>
	<path class="st14" d="M372.7,226.3L351,199.3c1.4-3.5,3.2-6.6,5.2-9.1c2.6-3.2,5.5-5.5,8.7-6.7L372.7,226.3z"/>
</g>
<g>
	<path class="st7" d="M399.6,227.3c-3.8,3.5-12.1,9.9-24.5,12.8c0,0.1,0,0.1,0.1,0.2c-2.9-1.4-6.6-5-6.6-13.6c0-9.2,2-13,3.4-14.5
		c14.9,2.2,23.5,7.3,27.5,10.3C400.9,223.7,401,226,399.6,227.3z"/>
</g>
<g class="st4">
	<path class="st5" d="M205.2,227.7l0-0.2l0,0c0,0,0,0,0-0.1c-2.9-6.9-16.3-7.2-30.1-0.7c-13.7,6.5-22.5,17.3-19.6,24.1
		c0.3,0.8,77.4,145.9,77.4,145.9c4.9,0.1,9.8,0,14.6-0.3C247.4,396.5,205.4,228.2,205.2,227.7z"/>
</g>
<g>
	<path class="st7" d="M153.5,314.6c0,0-13.1-5.6,43.5-28c0,0,7.5-3.2,19.5-7.4c2.5-0.9,5-2,7.4-3.3l15.7-8.5c0,0,51.1-18.5,85.8-0.1
		c1.7,0.9,1.3,3.5-0.6,3.9c-3.9,0.7-10.2,2.1-20.4,5c-25.1,6.9-72.7,21.9-85.3,27.1C206.3,308.4,162.2,321.5,153.5,314.6z"/>
	<path class="st6" d="M272.8,285.4c0,0,31.6-5.2,42.2-4.6h0c1.2-0.6,1.3-2.3,0.2-3l-0.3-0.2l-30.1,0.3L272.8,285.4z"/>
	<path class="st10" d="M280.5,283.3c0.1-2.6,1.5-4.9,3.8-6.1v0c0.1-0.1,0.3-0.1,0.4-0.1l30.4-0.3l0.5,0.3c0.7,0.5,1.2,1.3,1.3,2.2
		c0,1-0.5,1.9-1.4,2.4l-0.2,0.1l-0.2,0c-16.3,1.6-33.6,3.2-33.6,3.2l-1,0.1L280.5,283.3z"/>
	<path class="st7" d="M282.1,284c3.5-0.3,18.6-1.8,32.9-3.2h0c1.2-0.6,1.3-2.3,0.2-3l-0.3-0.2l-30.1,0.3l0,0c-2,1.1-3.3,3.1-3.4,5.4
		l0,0C281.4,283.7,281.7,284.1,282.1,284z"/>
	
		<ellipse transform="matrix(0.9796 -0.2011 0.2011 0.9796 -54.7305 47.7482)" class="st8" cx="207.6" cy="293.2" rx="10.8" ry="2.5"/>
	
		<ellipse transform="matrix(0.9796 -0.2011 0.2011 0.9796 -54.7305 47.7482)" class="st15" cx="207.6" cy="293.2" rx="30.8" ry="5.8"/>
	<path class="st8" d="M219.7,276.5c7.7-2.2,15.6-4.1,23.4-5.8c7.9-1.7,15.8-3.2,23.8-4.3c8-1.1,16-2.2,24.2-2
		c4.1,0.1,8.1,0.4,12.2,1.2c4,0.8,8,2,11.5,4.2c0.1,0,0.1,0.1,0,0.2c0,0.1-0.1,0.1-0.2,0.1c-3.8-1.4-7.7-2-11.6-2.4
		c-3.9-0.3-7.9-0.4-11.9-0.3c-7.9,0.2-15.9,0.5-23.9,1.4c-8,0.9-15.9,2-23.8,3.4c-7.9,1.3-15.8,2.9-23.6,4.7c-0.1,0-0.2,0-0.2-0.1
		C219.6,276.6,219.6,276.6,219.7,276.5z"/>
</g>
<linearGradient id="SVGID_4_" gradientUnits="userSpaceOnUse" x1="-1177.4292" y1="250.5964" x2="-741.7135" y2="250.5964" gradientTransform="matrix(-0.9997 2.289478e-02 2.289478e-02 0.9997 -731.1501 8.3709)">
	<stop  offset="1.385225e-07" style="stop-color:#D1D1D1"/>
	<stop  offset="0.2641" style="stop-color:#A8A8A8;stop-opacity:0.868"/>
	<stop  offset="0.7671" style="stop-color:#5D5D5D;stop-opacity:0.6165"/>
	<stop  offset="1" style="stop-color:#404040;stop-opacity:0.5"/>
</linearGradient>
<path class="st16" d="M70.2,135.2c-6.5,0.2-12.9,1-19.4,2.2c-6.4,1.3-12.8,3.2-18.8,6.2c-3,1.6-5.9,3.4-8.5,5.8
	c-2.6,2.3-4.9,5.2-6.5,8.5c-1.6,3.3-2.5,7-2.6,10.6c-0.1,3.7,0.4,7.3,1.3,10.7c1.9,6.8,5.2,12.9,9,18.5c0.5,0.7,0.9,1.4,1.4,2.1
	l1.5,2c1,1.3,2,2.7,3.1,4l3.3,3.8l3.4,3.7c0.6,0.6,1.1,1.2,1.7,1.8l1.8,1.7c1.2,1.2,2.4,2.3,3.6,3.5c2.5,2.2,4.9,4.5,7.4,6.6
	l3.8,3.2l3.9,3.1c2.6,2.1,5.2,4,7.9,6c1.3,1,2.7,1.9,4,2.9l4,2.8c2.7,1.9,5.4,3.7,8.2,5.5c2.8,1.8,5.5,3.5,8.3,5.3l8.4,5.1
	c11.3,6.6,22.9,12.7,34.6,18.5c11.7,5.7,23.7,11,35.8,16c12.1,4.9,24.3,9.5,36.7,13.7c12.4,4.2,24.8,8,37.4,11.5
	c12.6,3.4,25.3,6.5,38.1,9.2c12.8,2.6,25.7,4.9,38.7,6.5c6.5,0.8,13,1.5,19.5,2.1c6.5,0.5,13.1,0.9,19.7,1.1
	c6.6,0.2,13.2,0.1,19.8-0.2c6.6-0.3,13.2-0.9,19.8-1.8c6.6-1,13.2-2.3,19.6-4.3c6.4-2,12.8-4.6,18.7-8.5c2.9-2,5.6-4.3,8-7.1
	c1.1-1.4,2.2-2.9,3.1-4.5c0.5-0.8,0.8-1.6,1.2-2.5c0.3-0.9,0.7-1.7,0.9-2.6c0.6-1.7,0.9-3.6,1.1-5.3c0.1-1.8,0.1-3.6,0-5.4
	c-0.3-3.5-1.3-6.9-2.6-10c-1.3-3.1-2.9-6.1-4.7-8.9c-1.8-2.8-3.8-5.4-5.9-7.9c-4.2-5-8.9-9.5-13.8-13.7c4.3,4.8,8.4,9.8,12,15.1
	c3.6,5.3,6.6,10.9,8.4,16.8c1.8,5.9,2.1,12-0.1,17.2c-1,2.6-2.7,4.9-4.7,6.9c-2,2-4.4,3.7-6.9,5.2c-5.1,2.9-11,4.9-17,6.3
	c-3,0.7-6,1.3-9.1,1.7c-3.1,0.5-6.2,0.8-9.3,1.1c-12.5,1-25.2,0.8-37.8-0.1c-25.3-1.9-50.5-6.2-75.4-11.9c-12.4-2.9-24.8-6-37.1-9.5
	c-12.3-3.5-24.5-7.3-36.6-11.4c-12.1-4.1-24.1-8.5-35.9-13.2c-11.9-4.7-23.6-9.7-35.2-15c-23.1-10.7-45.8-22.6-66.9-36.7
	c-10.5-7.1-20.7-14.6-29.8-23.2c-4.6-4.2-8.8-8.8-12.6-13.6c-3.8-4.8-7-10-9.1-15.5c-2-5.5-2.5-11.3-0.4-16.6c1-2.6,2.6-5.1,4.6-7.2
	c2-2.2,4.4-4.1,7-5.8c5.2-3.3,11.1-5.8,17.2-7.7C57.5,137.7,63.9,136.3,70.2,135.2z"/>
<g>
	<path class="st6" d="M90.5,282.1l-1.3-3.8l11.2-3.7l1,2.9c0.3,0.9,0.4,1.7,0.3,2.3c-0.1,0.6-0.3,1.1-0.6,1.5
		c-0.3,0.4-0.8,0.7-1.4,0.9c-1.1,0.4-2.1,0.1-2.9-0.9c0.1,0.9,0,1.6-0.4,2.3c-0.4,0.7-0.9,1.1-1.6,1.3c-0.6,0.2-1.1,0.2-1.7,0.1
		c-0.5-0.1-1.1-0.5-1.5-0.9C91.1,283.6,90.8,282.9,90.5,282.1z M95.2,279.8l-0.5-1.5l-3.5,1.2l0.5,1.6c0.3,0.9,0.6,1.4,0.8,1.7
		c0.2,0.3,0.5,0.4,0.9,0.5c0.4,0.1,0.7,0.1,1,0c0.3-0.1,0.6-0.3,0.8-0.6c0.2-0.3,0.3-0.6,0.3-1.1C95.6,281.2,95.5,280.5,95.2,279.8z
		 M100,278l-0.5-1.4l-3.4,1.1l0.4,1.1c0.3,0.9,0.6,1.4,1.1,1.7c0.4,0.3,0.9,0.3,1.4,0.1C100.1,280.3,100.4,279.4,100,278z"/>
	<path class="st6" d="M95.2,294.4l-1.6-3.7l10.8-4.7l1.2,2.8c0.4,0.9,0.6,1.6,0.5,2.2c0,0.6-0.2,1.1-0.5,1.6c-0.3,0.4-0.7,0.8-1.3,1
		c-1.1,0.5-2.1,0.2-3-0.7c0.2,0.9,0.1,1.6-0.2,2.3c-0.3,0.7-0.8,1.2-1.5,1.5c-0.6,0.2-1.1,0.3-1.7,0.2c-0.6-0.1-1.1-0.4-1.6-0.8
		C96,295.9,95.6,295.3,95.2,294.4z M99.7,291.7l-0.6-1.4l-3.4,1.5l0.7,1.5c0.4,0.8,0.7,1.4,0.9,1.6c0.3,0.2,0.6,0.4,0.9,0.5
		c0.4,0.1,0.7,0,1-0.1c0.3-0.1,0.6-0.4,0.8-0.7c0.2-0.3,0.3-0.7,0.3-1.1C100.3,293.1,100.1,292.5,99.7,291.7z M104.3,289.6l-0.6-1.3
		l-3.2,1.4l0.4,1c0.4,0.8,0.8,1.3,1.2,1.6c0.5,0.2,0.9,0.2,1.4,0C104.7,291.8,104.9,290.9,104.3,289.6z"/>
	<path class="st6" d="M114,305.4l0.8,1.4l-10.3,5.7l-0.8-1.5l8-4.4l-5.7-1l-0.2-0.3l2.2-5.4l-8,4.4l-0.8-1.5l10.3-5.7l0.8,1.4
		l-2.3,5.8L114,305.4z"/>
	<path class="st6" d="M117.5,311l3.6,5.2l-1.2,0.8l-2.6-3.8l-2.7,1.9l2.6,3.8l-1.2,0.8l-2.6-3.8l-4.5,3.1l-1-1.4L117.5,311z"/>
	<path class="st6" d="M128.3,325.3l4.5,5l-1.1,1l-3.3-3.7l-2.7,2.4l3.2,3.6l-1.1,1l-3.2-3.6l-2.7,2.4l3.4,3.8l-1.1,1l-4.6-5.1
		L128.3,325.3z"/>
	<path class="st6" d="M133.3,335.8l0.8,0.8l-5,5.2l2.7,2.6l-0.7,0.8l-3.5-3.4L133.3,335.8z"/>
	<path class="st6" d="M139,341.2l3.5,3l-0.7,0.8l-2.6-2.3l-1.6,1.9l2.6,2.2l-0.7,0.8l-2.6-2.2l-1.7,1.9l2.7,2.4l-0.7,0.8l-3.6-3.1
		L139,341.2z"/>
	<path class="st6" d="M147,355.6l-0.8,1c-1-0.1-1.9-0.6-2.8-1.2c-0.7-0.6-1.2-1.2-1.5-1.9c-0.3-0.7-0.4-1.4-0.3-2.1
		c0.1-0.7,0.4-1.4,0.8-2c0.7-1,1.7-1.5,2.8-1.6c1.2-0.1,2.3,0.2,3.3,0.9c0.7,0.5,1.3,1.3,1.9,2.3l-0.8,1c-0.4-1-1-1.8-1.8-2.4
		c-0.8-0.6-1.6-0.8-2.4-0.7c-0.9,0.1-1.6,0.5-2.1,1.2c-0.5,0.7-0.7,1.5-0.6,2.3c0.1,0.8,0.6,1.5,1.4,2.1
		C144.9,355.2,145.8,355.6,147,355.6z"/>
	<path class="st6" d="M153,352.1l5.8,3.7l-0.6,0.9l-2.4-1.6l-3.9,6l-1-0.6l3.9-6l-2.4-1.5L153,352.1z"/>
	<path class="st6" d="M157.4,364.7l4-7.2l1.8,1c0.7,0.4,1.2,0.9,1.4,1.5c0.2,0.6,0.2,1.2-0.2,1.8c-0.2,0.4-0.5,0.7-0.9,0.9
		c-0.4,0.2-0.8,0.2-1.3,0.2c0.1,0.3,0.3,0.6,0.3,1c0.1,0.4,0.1,1,0.2,1.9c0,0.5,0,1,0.1,1.3l0.1,0.7l-1.2-0.7l0-0.6c0,0,0-0.1,0-0.1
		l0-0.4l0-0.7l0-0.8c0-0.4-0.1-0.8-0.2-1c-0.1-0.3-0.2-0.5-0.3-0.6c-0.1-0.2-0.3-0.3-0.7-0.5l-0.3-0.1l-1.8,3.1L157.4,364.7z
		 M162.3,359.1l-0.3-0.2l-1.3,2.3l0.4,0.2c0.5,0.3,0.9,0.4,1.1,0.5c0.2,0,0.5,0,0.7-0.1c0.2-0.1,0.4-0.3,0.5-0.5
		c0.1-0.2,0.2-0.5,0.2-0.7c0-0.3-0.1-0.5-0.3-0.7C163.1,359.6,162.8,359.4,162.3,359.1z"/>
	<path class="st6" d="M172.6,363.2c1.1,0.5,1.9,1.4,2.4,2.5c0.4,1.1,0.4,2.2-0.2,3.3c-0.5,1.1-1.3,1.8-2.4,2.2
		c-1.1,0.4-2.3,0.2-3.4-0.3c-1.1-0.5-1.9-1.3-2.3-2.4c-0.4-1.1-0.4-2.2,0.2-3.2c0.5-1.1,1.3-1.9,2.4-2.2
		C170.3,362.6,171.4,362.7,172.6,363.2z M172.1,364.2c-0.8-0.4-1.7-0.5-2.5-0.2c-0.8,0.3-1.4,0.8-1.8,1.6c-0.4,0.8-0.4,1.6-0.1,2.4
		c0.3,0.8,0.9,1.4,1.7,1.8c0.8,0.4,1.7,0.5,2.5,0.2c0.8-0.3,1.4-0.8,1.8-1.6c0.4-0.8,0.4-1.6,0.1-2.4
		C173.5,365.2,172.9,364.6,172.1,364.2z"/>
	<path class="st6" d="M185.8,368.9l1,0.4l-3,7.6l-0.9-0.4l-2.8-7.9l-2.3,5.9l-1-0.4l3-7.6l0.9,0.4l2.8,8L185.8,368.9z"/>
	<path class="st6" d="M190.4,370.4l1.1,0.4l-2.5,7.8l-1.1-0.4L190.4,370.4z"/>
	<path class="st6" d="M200.4,379.8l-0.3,1.3c-1,0.2-2,0.2-3.1-0.1c-0.9-0.2-1.6-0.6-2.1-1.1c-0.5-0.5-0.9-1.1-1.1-1.9
		c-0.2-0.7-0.2-1.4,0-2.2c0.3-1.2,1-2,2-2.6c1-0.6,2.2-0.7,3.4-0.4c0.8,0.2,1.7,0.7,2.6,1.4l-0.3,1.2c-0.8-0.8-1.6-1.3-2.5-1.5
		c-0.9-0.2-1.7-0.1-2.5,0.3c-0.8,0.4-1.2,1.1-1.5,1.9c-0.2,0.9-0.1,1.7,0.3,2.4c0.4,0.7,1.1,1.2,2.1,1.4
		C198.3,380.2,199.3,380.1,200.4,379.8z"/>
	<path class="st6" d="M215.7,372.5l1.2,0.2l3.7,12.4l-1.7-0.2l-1.1-3.7l-5-0.6l-1.9,3.3l-1.7-0.2L215.7,372.5z M217.3,379.6
		l-1.3-4.5l-2.3,4L217.3,379.6z"/>
	<path class="st6" d="M225.3,377l1.2,0.1l-0.5,8.2l-1.2-0.1L225.3,377z"/>
	<path class="st6" d="M230.3,385.5l0.1-8.2l2.1,0c0.8,0,1.5,0.2,2,0.6c0.5,0.4,0.7,1,0.7,1.7c0,0.5-0.1,0.9-0.4,1.2
		c-0.2,0.3-0.6,0.6-1,0.8c0.3,0.2,0.5,0.4,0.8,0.7c0.2,0.3,0.6,0.8,1,1.6c0.3,0.5,0.5,0.8,0.7,1.1l0.4,0.6l-1.4,0l-0.4-0.5
		c0,0,0-0.1-0.1-0.1l-0.2-0.3l-0.4-0.6l-0.4-0.6c-0.2-0.3-0.5-0.6-0.7-0.8c-0.2-0.2-0.4-0.3-0.5-0.4c-0.2-0.1-0.4-0.1-0.8-0.1
		l-0.3,0l0,3.6L230.3,385.5z M231.9,378.3l-0.4,0l0,2.6l0.4,0c0.6,0,1,0,1.2-0.1c0.2-0.1,0.4-0.3,0.5-0.5c0.1-0.2,0.2-0.4,0.2-0.7
		c0-0.3-0.1-0.5-0.2-0.7c-0.1-0.2-0.3-0.4-0.6-0.4C232.9,378.3,232.5,378.3,231.9,378.3z"/>
	<path class="st6" d="M247,383.1l0.1,1.3c-0.8,0.5-1.8,0.8-2.9,0.9c-0.9,0.1-1.7-0.1-2.4-0.4c-0.7-0.3-1.2-0.8-1.6-1.4
		c-0.4-0.6-0.6-1.3-0.7-2.1c-0.1-1.2,0.3-2.2,1.1-3.1c0.8-0.9,1.8-1.3,3.1-1.4c0.9-0.1,1.8,0.1,2.9,0.5l0.1,1.3
		c-1-0.5-2-0.7-2.9-0.6c-0.9,0.1-1.7,0.4-2.3,1c-0.6,0.6-0.8,1.4-0.8,2.3c0.1,0.9,0.4,1.6,1.1,2.2c0.6,0.5,1.4,0.8,2.4,0.7
		C245.2,384.1,246.1,383.7,247,383.1z"/>
	<path class="st6" d="M251.1,384.6l-1.1-8.2l2-0.3c0.8-0.1,1.5,0,2,0.4c0.5,0.3,0.9,0.9,0.9,1.6c0.1,0.5,0,0.9-0.2,1.3
		c-0.2,0.4-0.5,0.7-0.9,0.9c0.3,0.1,0.6,0.3,0.9,0.6c0.3,0.3,0.7,0.7,1.3,1.4c0.3,0.4,0.6,0.7,0.8,1l0.5,0.5l-1.4,0.2l-0.4-0.5
		c0,0,0,0-0.1-0.1l-0.3-0.3l-0.4-0.5l-0.5-0.6c-0.3-0.3-0.5-0.5-0.8-0.7c-0.2-0.2-0.4-0.3-0.6-0.4c-0.2-0.1-0.5-0.1-0.8,0l-0.3,0
		l0.5,3.6L251.1,384.6z M251.7,377.2l-0.3,0l0.3,2.6l0.4-0.1c0.6-0.1,1-0.2,1.2-0.3c0.2-0.1,0.4-0.3,0.5-0.5
		c0.1-0.2,0.1-0.5,0.1-0.7c0-0.3-0.1-0.5-0.3-0.7c-0.2-0.2-0.4-0.3-0.6-0.4C252.7,377.1,252.3,377.1,251.7,377.2z"/>
	<path class="st6" d="M261.8,374.5l0.8-0.2l5.3,7.4l-1.2,0.2l-1.6-2.2l-3.4,0.7l-0.5,2.6l-1.2,0.2L261.8,374.5z M264.4,378.9
		l-1.9-2.7l-0.6,3.2L264.4,378.9z"/>
	<path class="st6" d="M269,372.9l4.2-1.1l0.3,1l-3.1,0.8l0.6,2.2l3.1-0.8l0.3,1l-3.1,0.8l1,3.7l-1.1,0.3L269,372.9z"/>
	<path class="st6" d="M275.7,371.1l6.5-2.2l0.3,1l-2.7,0.9l2.3,6.8l-1.1,0.4l-2.3-6.8l-2.7,0.9L275.7,371.1z"/>
	<path class="st6" d="M299.3,357.6l1.4-0.7l5.2,10.6l-1.5,0.7l-4-8.2l-1.2,5.7l-0.3,0.1l-5.3-2.5l4,8.2l-1.5,0.7l-5.2-10.6l1.4-0.7
		l5.6,2.6L299.3,357.6z"/>
	<path class="st6" d="M308.8,356.2l0.7-0.4l7.5,5.1l-1,0.6l-2.2-1.5l-3,1.8l0.4,2.6l-1,0.6L308.8,356.2z M312.8,359.4l-2.7-1.8
		l0.5,3.2L312.8,359.4z"/>
	<path class="st6" d="M320.3,348.4l0.9-0.7l4.8,6.7l-0.8,0.6l-8.2-1.9l3.7,5.1l-0.9,0.6l-4.8-6.7l0.8-0.6l8.2,1.9L320.3,348.4z"/>
	<path class="st6" d="M328.5,341.8l0.9-0.8l3,3.6c0.4,0.5,0.7,0.9,0.8,1.2c0.1,0.3,0.2,0.6,0.3,0.8c0,0.3,0,0.5,0,0.8
		c-0.1,0.8-0.6,1.6-1.4,2.3c-0.8,0.7-1.7,1-2.5,1c-0.3,0-0.5,0-0.8-0.1c-0.2-0.1-0.5-0.2-0.8-0.4s-0.6-0.5-1-1l-3-3.6l0.9-0.8l3,3.6
		c0.5,0.6,0.9,0.9,1.2,1.1c0.3,0.1,0.7,0.1,1.1,0c0.4-0.1,0.8-0.3,1.2-0.6c0.5-0.5,0.9-1,1-1.5c0-0.3,0-0.6-0.1-0.9
		c-0.1-0.3-0.3-0.7-0.8-1.1L328.5,341.8z"/>
	<path class="st6" d="M333.7,336.9l0.6-0.6l8.4,3.4l-0.9,0.8l-2.5-1l-2.5,2.4l1,2.5l-0.9,0.8L333.7,336.9z M338.3,339.1l-3-1.2
		l1.2,3L338.3,339.1z"/>
	<path class="st6" d="M338.9,331.7l0.8-0.9l5.3,4.8l2.5-2.7l0.8,0.7l-3.3,3.6L338.9,331.7z"/>
	<path class="st6" d="M353.5,319l-1.4,0.6c-0.9,0.4-1.6,0.6-2.2,0.6c-0.6,0-1.1-0.2-1.6-0.5c-0.8-0.5-1.2-1.2-1.3-2.1
		c-0.1-0.9,0.2-1.7,0.8-2.5c0.6-0.8,1.3-1.4,2.2-1.7l1.6,1.1c-1.2,0.2-2,0.7-2.6,1.5c-0.3,0.4-0.5,0.9-0.5,1.3c0,0.4,0.2,0.8,0.5,1
		c0.3,0.2,0.6,0.3,1,0.3c0.4,0,0.9-0.2,1.5-0.5l1.4-0.6c1.5-0.7,2.8-0.6,3.9,0.2c0.8,0.5,1.2,1.2,1.3,2.1c0.1,0.9-0.1,1.7-0.7,2.5
		c-0.7,0.9-1.6,1.6-2.7,2l-1.7-1.2c1.5-0.1,2.5-0.6,3.2-1.6c0.3-0.4,0.4-0.9,0.4-1.3c0-0.5-0.2-0.8-0.6-1.1
		C355.4,318.6,354.6,318.6,353.5,319z"/>
	<path class="st6" d="M357.5,306.8l0.7-1.2l1.7,4.6l3.7,2.3l-0.6,1l-3.7-2.3l-4.9,0.6l0.7-1.2l3.6-0.4L357.5,306.8z"/>
	<path class="st6" d="M364.7,303.7l-0.9,0.5c-0.6,0.3-1.1,0.5-1.5,0.6c-0.4,0.1-0.8,0-1.2-0.2c-0.6-0.3-0.9-0.8-1.1-1.3
		c-0.1-0.6,0-1.2,0.3-1.8c0.3-0.6,0.8-1.1,1.4-1.4l1.2,0.6c-0.8,0.3-1.3,0.7-1.7,1.3c-0.2,0.3-0.3,0.7-0.2,1c0,0.3,0.2,0.5,0.4,0.6
		c0.2,0.1,0.5,0.1,0.7,0.1c0.3-0.1,0.6-0.2,1-0.5l0.9-0.5c1-0.6,1.9-0.7,2.7-0.3c0.6,0.3,1,0.8,1.1,1.3c0.2,0.6,0.1,1.2-0.3,1.8
		c-0.4,0.7-1,1.3-1.7,1.6l-1.3-0.7c1-0.2,1.7-0.6,2.1-1.4c0.2-0.3,0.2-0.6,0.2-1c-0.1-0.3-0.2-0.5-0.5-0.7
		C366,303.2,365.4,303.3,364.7,303.7z"/>
	<path class="st6" d="M362.7,297.2l2.9-6.2l1,0.4l-1.2,2.6l6.5,3l-0.5,1.1l-6.5-3l-1.2,2.6L362.7,297.2z"/>
	<path class="st6" d="M366.7,288.1l1.7-4.3l1,0.4l-1.3,3.2l2.3,0.9l1.2-3.1l1,0.4l-1.2,3.1l2.4,0.9l1.3-3.3l1,0.4l-1.8,4.4
		L366.7,288.1z"/>
	<path class="st6" d="M371.5,274.4l0.3-1l7.8,2.5l-0.4,1.1l-6.1-1.9l2.3,3.4l-0.1,0.2l-3.8,1.5l6.1,1.9l-0.4,1.1l-7.8-2.5l0.3-1.1
		l4-1.6L371.5,274.4z"/>
</g>
<circle class="st8" cx="414.4" cy="328.9" r="26.5"/>
<g>
	
		<ellipse transform="matrix(0.4942 -0.8693 0.8693 0.4942 -76.2947 526.5692)" class="st17" cx="414.4" cy="328.9" rx="20.1" ry="11.8"/>
	<circle class="st18" cx="428.5" cy="323.1" r="2.1"/>
	<circle class="st18" cx="400.3" cy="334.6" r="2.1"/>
	
		<ellipse transform="matrix(0.3358 -0.9419 0.9419 0.3358 -34.507 608.7717)" class="st19" cx="414.4" cy="328.9" rx="6.6" ry="20.1"/>
	<circle class="st20" cx="410.1" cy="334.3" r="2.1"/>
	<circle class="st20" cx="418.7" cy="323.4" r="2.1"/>
	<circle class="st21" cx="414.4" cy="328.9" r="20.1"/>
	<circle class="st22" cx="410.8" cy="309.1" r="2.1"/>
	<circle class="st22" cx="418" cy="348.6" r="2.1"/>
</g>
</svg>
